<svg width="74" height="74" viewBox="0 0 74 74" fill="none" xmlns="http://www.w3.org/2000/svg">
<path d="M23.3635 41.5268L34.4877 52.9438L49.6571 33.2236" stroke="#A2B21C" stroke-width="4" stroke-linecap="round" stroke-linejoin="round"/>
<path d="M15.1511 11.1411C13.2838 11.3215 11.6693 11.5113 10.3011 11.6936C6.68714 12.1754 3.9288 14.8947 3.4116 18.5038C2.74184 23.1773 2 30.6125 2 40.6194C2 50.6262 2.74184 58.0614 3.4116 62.7349C3.9288 66.3439 6.68714 69.0633 10.3011 69.5449C15.4454 70.2307 24.0733 71.0213 36.5103 71.0213C48.9474 71.0213 57.5753 70.2307 62.7196 69.5449C66.3335 69.0633 69.0919 66.3439 69.609 62.7349C70.2789 58.0614 71.0207 50.6262 71.0207 40.6194C71.0207 30.6125 70.2789 23.1773 69.609 18.5038C69.0919 14.8947 66.3335 12.1754 62.7196 11.6936C61.3514 11.5113 59.7368 11.3215 57.8696 11.1411" stroke="#A2B21C" stroke-width="4" stroke-linecap="round" stroke-linejoin="round"/>
<path d="M44.7272 10.3384C42.1999 10.2613 39.4624 10.2167 36.5103 10.2167C33.5582 10.2167 30.8209 10.2613 28.2936 10.3384" stroke="#A2B21C" stroke-width="4" stroke-linecap="round" stroke-linejoin="round"/>
<path d="M44.7486 12.3037C44.8197 15.7218 47.0634 18.3748 50.4819 18.4274C50.743 18.4314 51.0157 18.4335 51.3004 18.4335C51.5852 18.4335 51.8579 18.4314 52.119 18.4274C55.5375 18.3748 57.7812 15.7218 57.8523 12.3037C57.8658 11.6541 57.8738 10.9567 57.8738 10.2167C57.8738 9.47681 57.8658 8.77936 57.8523 8.12981C57.7812 4.71167 55.5375 2.05873 52.119 2.00615C51.8579 2.00214 51.5852 2 51.3004 2C51.0157 2 50.743 2.00214 50.4819 2.00615C47.0634 2.05873 44.8197 4.71167 44.7486 8.12981C44.7351 8.77936 44.7271 9.47681 44.7271 10.2167C44.7271 10.9567 44.7351 11.6541 44.7486 12.3037Z" stroke="#A2B21C" stroke-width="4" stroke-linecap="round" stroke-linejoin="round"/>
<path d="M15.1683 12.3037C15.2394 15.7218 17.4831 18.3748 20.9016 18.4274C21.1627 18.4314 21.4353 18.4335 21.7201 18.4335C22.0049 18.4335 22.2776 18.4314 22.5387 18.4274C25.9572 18.3748 28.2008 15.7218 28.272 12.3037C28.2855 11.6541 28.2935 10.9567 28.2935 10.2167C28.2935 9.47681 28.2855 8.77936 28.272 8.12981C28.2008 4.71167 25.9572 2.05873 22.5387 2.00615C22.2776 2.00214 22.0049 2 21.7201 2C21.4353 2 21.1627 2.00214 20.9016 2.00615C17.4831 2.05873 15.2394 4.71167 15.1683 8.12981C15.1548 8.77936 15.1467 9.47681 15.1467 10.2167C15.1467 10.9567 15.1548 11.6541 15.1683 12.3037Z" stroke="#A2B21C" stroke-width="4" stroke-linecap="round" stroke-linejoin="round"/>
</svg>
