<svg width="103" height="103" viewBox="0 0 103 103" fill="none" xmlns="http://www.w3.org/2000/svg">
<path d="M36.2105 3.88095C41.0295 2.33483 46.1674 1.5 51.5 1.5C56.8326 1.5 61.9705 2.33483 66.7895 3.88095M100.594 41.9762C101.189 45.0593 101.5 48.2433 101.5 51.5C101.5 79.1143 79.1143 101.5 51.5 101.5C23.8857 101.5 1.5 79.1143 1.5 51.5C1.5 48.2433 1.81136 45.0593 2.40593 41.9762" stroke="black" stroke-width="3" stroke-linecap="round" stroke-linejoin="round"/>
<path d="M51.5 89.5953C63.9776 89.5953 74.5872 81.5967 78.481 70.4474C80.0586 65.93 75.4226 62.2957 70.7129 63.14C65.61 64.0548 58.8434 64.92 51.5 64.92C44.1567 64.92 37.39 64.0548 32.2872 63.14C27.5774 62.2957 22.9415 65.93 24.5191 70.4474C28.4129 81.5967 39.0224 89.5953 51.5 89.5953Z" stroke="black" stroke-width="3" stroke-linecap="round" stroke-linejoin="round"/>
<path d="M77.8381 5.15949C78.605 3.08582 81.5378 3.08585 82.3045 5.15949L87.6476 19.61L99.5992 25.5597C101.359 26.4357 101.359 28.9464 99.5992 29.8226L87.6476 35.7724L82.3045 50.2226C81.5378 52.2964 78.605 52.2964 77.8381 50.2226L72.4952 35.7724L60.5433 29.8226C58.7835 28.9464 58.7835 26.4357 60.5433 25.5597L72.4952 19.61L77.8381 5.15949Z" stroke="black" stroke-width="3" stroke-linejoin="round"/>
<path d="M25.1616 5.15949C24.3949 3.08582 21.4621 3.08585 20.6952 5.15949L15.3523 19.61L3.40051 25.5597C1.64066 26.4357 1.64066 28.9464 3.40051 29.8226L15.3523 35.7724L20.6952 50.2226C21.4621 52.2964 24.3949 52.2964 25.1616 50.2226L30.5047 35.7724L42.4563 29.8226C44.2161 28.9464 44.2161 26.4357 42.4563 25.5597L30.5047 19.61L25.1616 5.15949Z" stroke="black" stroke-width="3" stroke-linejoin="round"/>
</svg>
