<svg width="70" height="70" viewBox="0 0 70 70" fill="none" xmlns="http://www.w3.org/2000/svg">
<path d="M60.5208 10.9375C63.3398 10.9375 65.625 13.2227 65.625 16.0417C65.625 18.8606 63.3398 21.1458 60.5208 21.1458C57.7019 21.1458 55.4167 18.8606 55.4167 16.0417C55.4167 13.2227 57.7019 10.9375 60.5208 10.9375Z" stroke="#A2B21C" stroke-width="3" stroke-linecap="round" stroke-linejoin="round"/>
<path d="M9.47917 10.9375C12.2981 10.9375 14.5833 13.2227 14.5833 16.0417C14.5833 18.8606 12.2981 21.1458 9.47917 21.1458C6.66021 21.1458 4.375 18.8606 4.375 16.0417C4.375 13.2227 6.66021 10.9375 9.47917 10.9375Z" stroke="#A2B21C" stroke-width="3" stroke-linecap="round" stroke-linejoin="round"/>
<path d="M43.7497 18.6594C48.8922 18.296 52.8376 17.6633 55.5288 17.1112M26.2503 18.6594C21.1078 18.296 17.1624 17.6633 14.4712 17.1112" stroke="#A2B21C" stroke-width="3" stroke-linecap="round" stroke-linejoin="round"/>
<path d="M26.3451 14.106C26.4435 11.9543 27.9958 10.402 30.1474 10.3035C31.3517 10.2483 32.9363 10.2083 35 10.2083C37.0635 10.2083 38.648 10.2483 39.8523 10.3034C42.0042 10.402 43.5565 11.9544 43.6549 14.1062C43.71 15.3105 43.75 16.8949 43.75 18.9583C43.75 21.0213 43.71 22.6055 43.6551 23.8098C43.5565 25.9621 42.0036 27.515 39.8511 27.6134C38.647 27.6685 37.063 27.7083 35 27.7083C32.937 27.7083 31.3527 27.6685 30.1486 27.6134C27.9962 27.515 26.4435 25.9623 26.3451 23.8101C26.29 22.6058 26.25 21.0214 26.25 18.9583C26.25 16.8948 26.29 15.3102 26.3451 14.106Z" stroke="#A2B21C" stroke-width="3" stroke-linecap="round" stroke-linejoin="round"/>
<path d="M26.2631 20.9166C19.3582 24.1907 14.5833 31.225 14.5833 39.3747V42.2914M55.4167 42.2914V39.3747C55.4167 31.225 50.6418 24.1907 43.7369 20.9166" stroke="#A2B21C" stroke-width="3" stroke-linecap="round" stroke-linejoin="round"/>
<path d="M46.7617 46.1893C46.8602 44.0376 48.4124 42.4853 50.5641 42.3867C51.7683 42.3316 53.353 42.2917 55.4167 42.2917C57.4802 42.2917 59.0647 42.3316 60.269 42.3867C62.4209 42.4853 63.9731 44.0377 64.0716 46.1895C64.1267 47.3938 64.1667 48.9783 64.1667 51.0417C64.1667 53.1046 64.1267 54.6888 64.0717 55.8931C63.9731 58.0454 62.4203 59.5983 60.2678 59.6967C59.0637 59.7518 57.4796 59.7917 55.4167 59.7917C53.3537 59.7917 51.7694 59.7518 50.5652 59.6967C48.4129 59.5983 46.8602 58.0456 46.7617 55.8934C46.7066 54.6891 46.6667 53.1048 46.6667 51.0417C46.6667 48.9781 46.7066 47.3935 46.7617 46.1893Z" stroke="#A2B21C" stroke-width="3" stroke-linecap="round" stroke-linejoin="round"/>
<path d="M5.9284 46.1893C6.02689 44.0376 7.57906 42.4853 9.73075 42.3867C10.9351 42.3316 12.5197 42.2917 14.5833 42.2917C16.6469 42.2917 18.2314 42.3316 19.4357 42.3867C21.5876 42.4853 23.1398 44.0377 23.2383 46.1895C23.2934 47.3938 23.3333 48.9783 23.3333 51.0417C23.3333 53.1046 23.2934 54.6888 23.2384 55.8931C23.1398 58.0454 21.587 59.5983 19.4345 59.6967C18.2303 59.7518 16.6463 59.7917 14.5833 59.7917C12.5203 59.7917 10.9361 59.7518 9.73191 59.6967C7.5796 59.5983 6.02685 58.0456 5.92835 55.8934C5.87324 54.6891 5.83334 53.1048 5.83334 51.0417C5.83334 48.9781 5.87326 47.3935 5.9284 46.1893Z" stroke="#A2B21C" stroke-width="3" stroke-linecap="round" stroke-linejoin="round"/>
</svg>
