<svg width="103" height="103" viewBox="0 0 103 103" fill="none" xmlns="http://www.w3.org/2000/svg">
<path d="M5.84216 51.6819C9.73441 43.303 18.3779 28.5536 26.6171 19.1769C29.6031 15.7788 34.6941 15.7788 37.6801 19.1769C45.9195 28.5536 54.5629 43.303 58.455 51.6819" stroke="black" stroke-width="3" stroke-linecap="round" stroke-linejoin="round"/>
<path d="M39.45 21.262C44.3014 14.6748 49.4649 8.4566 54.4222 3.81574C57.3903 1.03701 61.9114 1.03701 64.8795 3.81574C65.525 4.42 66.174 5.051 66.8252 5.70607" stroke="black" stroke-width="3" stroke-linecap="round" stroke-linejoin="round"/>
<path d="M94.3274 51.6807C98.2897 51.6807 101.556 54.8853 100.996 58.7766C97.5241 82.93 76.5885 101.5 51.2805 101.5C25.9725 101.5 5.03671 82.93 1.5646 58.7766C1.00523 54.8853 4.27117 51.6807 8.23352 51.6807H94.3274Z" stroke="black" stroke-width="3" stroke-linecap="round" stroke-linejoin="round"/>
<path d="M31.0076 51.6807C33.3881 55.7604 34.1888 60.1754 32.1486 64.7286C30.0649 69.3798 26.1653 71.1038 22.2298 72.8437C17.9842 74.7209 13.6969 76.6164 11.6028 82.2251" stroke="black" stroke-width="3" stroke-linecap="round" stroke-linejoin="round"/>
<path d="M52.3034 51.6807C51.9499 63.268 59.6986 65.306 66.3682 67.0601C70.3386 68.1045 73.9265 69.0482 75.1955 71.8457C76.1298 74.6263 74.0722 77.0447 71.7249 79.8037C68.064 84.1067 63.6981 89.238 68.8771 97.8634" stroke="black" stroke-width="3" stroke-linecap="round" stroke-linejoin="round"/>
<path d="M85.6432 2.16639C80.7376 7.47895 75.1664 17.7297 72.804 23.2825C72.804 23.2825 74.0103 23.7988 78.4719 24.129C76.0849 28.5646 74.0196 33.0758 72.804 36.219C72.804 36.219 75.4134 37.4469 87.153 37.4469C98.8926 37.4469 101.502 36.219 101.502 36.219C100.286 33.0758 98.2211 28.5646 95.8341 24.129C100.296 23.7988 101.502 23.2825 101.502 23.2825C99.1397 17.7297 93.5684 7.47895 88.6628 2.16639C87.8422 1.27787 86.4638 1.27787 85.6432 2.16639Z" stroke="black" stroke-width="3" stroke-linecap="round" stroke-linejoin="round"/>
<path d="M87.1528 37.4466V51.6807" stroke="black" stroke-width="3" stroke-linecap="round"/>
</svg>
