<svg width="70" height="70" viewBox="0 0 70 70" fill="none" xmlns="http://www.w3.org/2000/svg">
<path d="M54.6875 48.5052C54.9898 48.5205 55.2713 48.5357 55.5326 48.5502C57.3045 48.6499 58.889 49.6196 59.687 51.2047C60.7287 53.2734 62.1638 56.5298 63.2201 60.5105C63.8607 62.9249 62.0897 65.1624 59.5938 65.2642C55.4139 65.4347 47.8682 65.6249 35 65.6249C22.1318 65.6249 14.5861 65.4347 10.4061 65.2642C7.91022 65.1624 6.13921 62.9249 6.77984 60.5105C7.83607 56.5298 9.27128 53.2734 10.3129 51.2047C11.111 49.6196 12.6954 48.6499 14.4673 48.5502C14.7287 48.5357 15.0102 48.5205 15.3124 48.5052" stroke="#A2B21C" stroke-width="3" stroke-linecap="round" stroke-linejoin="round"/>
<path d="M56.875 26.3518C56.875 41.8542 41.2008 52.9824 36.3883 56.0338C35.5339 56.5756 34.4661 56.5756 33.6117 56.0338C28.7992 52.9824 13.125 41.8542 13.125 26.3518C13.125 14.2143 22.9187 4.375 35 4.375C47.0813 4.375 56.875 14.2143 56.875 26.3518Z" stroke="#A2B21C" stroke-width="3" stroke-linecap="round" stroke-linejoin="round"/>
<path d="M43.75 26.25C43.75 31.0825 39.8325 35 35 35C30.1675 35 26.25 31.0825 26.25 26.25C26.25 21.4175 30.1675 17.5 35 17.5C39.8325 17.5 43.75 21.4175 43.75 26.25Z" stroke="#A2B21C" stroke-width="3" stroke-linecap="round" stroke-linejoin="round"/>
</svg>
