<svg width="70" height="70" viewBox="0 0 70 70" fill="none" xmlns="http://www.w3.org/2000/svg">
<path d="M12.0279 56.2004C8.30992 55.9411 5.40956 53.1644 5.08323 49.4518C4.72576 45.3848 4.375 39.2074 4.375 30.625C4.375 22.0426 4.72576 15.8652 5.08323 11.7983C5.40956 8.08555 8.30992 5.30886 12.0279 5.04967C16.735 4.72151 24.2503 4.375 35 4.375C45.7497 4.375 53.265 4.72151 57.9721 5.04967C61.6901 5.30887 64.5905 8.08555 64.9168 11.7983C65.2743 15.8652 65.625 22.0426 65.625 30.625C65.625 39.2074 65.2743 45.3848 64.9168 49.4518C64.5905 53.1644 61.6901 55.9411 57.9721 56.2004C53.592 56.5057 46.7801 56.827 37.1932 56.8702L26.6898 65.8731C24.7978 67.4947 21.875 66.1504 21.875 63.6586V56.6812C17.7707 56.5514 14.5091 56.3733 12.0279 56.2004Z" stroke="black" stroke-width="3" stroke-linejoin="round"/>
<path d="M29.4651 17.8455C29.2686 15.7081 30.3481 13.6547 32.4678 13.3171C33.1926 13.2017 34.0365 13.125 34.9999 13.125C35.9631 13.125 36.8072 13.2017 37.5318 13.3171C39.6517 13.6547 40.731 15.7081 40.5347 17.8455C40.2583 20.8524 39.8192 25.1455 39.3415 27.9281C39.1094 29.2791 38.2062 30.3666 36.8447 30.5266C36.3421 30.5856 35.7322 30.625 34.9999 30.625C34.2673 30.625 33.6576 30.5856 33.1551 30.5266C31.7936 30.3666 30.8903 29.2791 30.6583 27.9281C30.1805 25.1455 29.7413 20.8524 29.4651 17.8455Z" stroke="black" stroke-width="3" stroke-linejoin="round"/>
<path d="M40.1041 41.5625C40.1041 44.3815 37.8189 46.6667 35 46.6667C32.181 46.6667 29.8958 44.3815 29.8958 41.5625C29.8958 38.7436 32.181 36.4583 35 36.4583C37.8189 36.4583 40.1041 38.7436 40.1041 41.5625Z" stroke="black" stroke-width="3" stroke-linejoin="round"/>
</svg>
