<?xml version="1.0" encoding="UTF-8"?>
<svg id="Calque_1" xmlns="http://www.w3.org/2000/svg" version="1.1" viewBox="0 0 103 103">
  <!-- Generator: Adobe Illustrator 29.8.7, SVG Export Plug-In . SVG Version: 2.1.1 Build 1)  -->
  <defs>
    <style>
      .st0, .st1 {
        fill: none;
        stroke: #fff;
        stroke-linejoin: round;
        stroke-width: 3px;
      }

      .st1 {
        stroke-linecap: round;
      }
    </style>
  </defs>
  <path class="st1" d="M36.2,3.9c4.8-1.5,10-2.4,15.3-2.4s10.5.8,15.3,2.4M100.6,42c.6,3.1.9,6.3.9,9.5,0,27.6-22.4,50-50,50S1.5,79.1,1.5,51.5s.3-6.4.9-9.5"/>
  <path class="st1" d="M51.5,89.6c12.5,0,23.1-8,27-19.1,1.6-4.5-3.1-8.2-7.8-7.3-5.1.9-11.9,1.8-19.2,1.8s-14.1-.9-19.2-1.8c-4.7-.8-9.3,2.8-7.8,7.3,3.9,11.1,14.5,19.1,27,19.1Z"/>
  <path class="st0" d="M77.8,5.2c.8-2.1,3.7-2.1,4.5,0l5.3,14.5,12,5.9c1.8.9,1.8,3.4,0,4.3l-12,5.9-5.3,14.5c-.8,2.1-3.7,2.1-4.5,0l-5.3-14.5-12-5.9c-1.8-.9-1.8-3.4,0-4.3l12-5.9,5.3-14.5Z"/>
  <path class="st0" d="M25.2,5.2c-.8-2.1-3.7-2.1-4.5,0l-5.3,14.5-12,5.9c-1.8.9-1.8,3.4,0,4.3l12,5.9,5.3,14.5c.8,2.1,3.7,2.1,4.5,0l5.3-14.5,12-5.9c1.8-.9,1.8-3.4,0-4.3l-12-5.9-5.3-14.5Z"/>
</svg>