<svg width="103" height="103" viewBox="0 0 103 103" fill="none" xmlns="http://www.w3.org/2000/svg">
<path d="M80.9595 61.8175C81.9288 58.7584 82.4524 55.4949 82.4524 52.1069C82.4524 34.6772 68.5945 20.5476 51.5 20.5476C34.4055 20.5476 20.5476 34.6772 20.5476 52.1069C20.5476 55.4949 21.0712 58.7584 22.0405 61.8175" stroke="black" stroke-width="3" stroke-linecap="round" stroke-linejoin="round"/>
<path d="M50.7063 1.5V9.43651" stroke="black" stroke-width="3" stroke-linecap="round" stroke-linejoin="round"/>
<path d="M101.5 52.2936H93.5635" stroke="black" stroke-width="3" stroke-linecap="round" stroke-linejoin="round"/>
<path d="M7.84921 52.2936H1.5" stroke="black" stroke-width="3" stroke-linecap="round" stroke-linejoin="round"/>
<path d="M20.5476 20.5476L15.7857 15.7857" stroke="black" stroke-width="3" stroke-linecap="round" stroke-linejoin="round"/>
<path d="M82.4524 20.5476L87.2143 15.7857" stroke="black" stroke-width="3" stroke-linecap="round" stroke-linejoin="round"/>
<path d="M1.5 101.5C5.99943 101.5 10.4989 100.265 14.4049 97.7953C16.634 96.3857 19.6993 96.3857 21.9283 97.7953C25.8345 100.265 30.3338 101.5 34.8333 101.5C39.3329 101.5 43.8321 100.265 47.7383 97.7953C49.9674 96.3857 53.0326 96.3857 55.2617 97.7953C59.1679 100.265 63.6671 101.5 68.1667 101.5C72.6662 101.5 77.1655 100.265 81.0717 97.7953C83.3007 96.3857 86.3659 96.3857 88.595 97.7953C92.5012 100.265 97.0005 101.5 101.5 101.5" stroke="black" stroke-width="3" stroke-linecap="round" stroke-linejoin="round"/>
<path d="M1.5 82.4524C5.99943 82.4524 10.4989 81.2174 14.4049 78.7477C16.634 77.3381 19.6993 77.3381 21.9283 78.7477C25.8345 81.2174 30.3338 82.4524 34.8333 82.4524C39.3329 82.4524 43.8321 81.2174 47.7383 78.7477C49.9674 77.3381 53.0326 77.3381 55.2617 78.7477C59.1679 81.2174 63.6671 82.4524 68.1667 82.4524C72.6662 82.4524 77.1655 81.2174 81.0717 78.7477C83.3007 77.3381 86.3659 77.3381 88.595 78.7477C92.5012 81.2174 97.0005 82.4524 101.5 82.4524" stroke="black" stroke-width="3" stroke-linecap="round" stroke-linejoin="round"/>
</svg>
