<svg width="70" height="70" viewBox="0 0 70 70" fill="none" xmlns="http://www.w3.org/2000/svg">
<path d="M5.37626 11.3776C5.66885 8.85506 7.19925 6.77253 9.67884 6.22417C13.5466 5.36881 21.0435 4.375 35 4.375C48.9565 4.375 56.4534 5.36881 60.3212 6.22417C62.8008 6.77253 64.3312 8.85506 64.6237 11.3776C65.0662 15.1923 65.625 21.4748 65.625 28.875C65.625 42.6997 58.3287 55.6357 46.0364 61.9621C41.9301 64.0754 37.9226 65.625 35 65.625C32.0774 65.625 28.0699 64.0754 23.9636 61.9621C11.6713 55.6357 4.375 42.6997 4.375 28.875C4.375 21.4748 4.93379 15.1923 5.37626 11.3776Z" stroke="black" stroke-width="3" stroke-linecap="round" stroke-linejoin="round"/>
<path d="M16.5388 20.2525C16.773 17.8805 18.2096 15.9451 20.5552 15.5219C23.1961 15.0455 27.6518 14.5833 35 14.5833C42.3483 14.5833 46.8039 15.0455 49.4448 15.5219C51.7904 15.9451 53.227 17.8805 53.4612 20.2525C53.7056 22.7268 53.9584 26.2676 53.9584 30.3333C53.9584 38.0831 50.1963 45.2239 43.8925 49.7319C40.6788 52.0303 37.2979 53.9583 35 53.9583C32.7021 53.9583 29.3213 52.0303 26.1075 49.7319C19.8037 45.2239 16.0417 38.0831 16.0417 30.3333C16.0417 26.2676 16.2944 22.7268 16.5388 20.2525Z" stroke="black" stroke-width="3" stroke-linecap="round" stroke-linejoin="round"/>
</svg>
