<?xml version="1.0" encoding="UTF-8"?>
<svg id="Calque_1" xmlns="http://www.w3.org/2000/svg" version="1.1" viewBox="0 0 103 103">
  <!-- Generator: Adobe Illustrator 29.8.7, SVG Export Plug-In . SVG Version: 2.1.1 Build 1)  -->
  <defs>
    <style>
      .st0 {
        fill: none;
        stroke: #fff;
        stroke-linecap: round;
        stroke-linejoin: round;
        stroke-width: 3px;
      }
    </style>
  </defs>
  <path class="st0" d="M81,61.8c1-3.1,1.5-6.3,1.5-9.7,0-17.4-13.9-31.6-31-31.6s-31,14.1-31,31.6.5,6.7,1.5,9.7"/>
  <path class="st0" d="M50.7,1.5v7.9"/>
  <path class="st0" d="M101.5,52.3h-7.9"/>
  <path class="st0" d="M7.8,52.3H1.5"/>
  <path class="st0" d="M20.5,20.5l-4.8-4.8"/>
  <path class="st0" d="M82.5,20.5l4.8-4.8"/>
  <path class="st0" d="M1.5,101.5c4.5,0,9-1.2,12.9-3.7,2.2-1.4,5.3-1.4,7.5,0,3.9,2.5,8.4,3.7,12.9,3.7s9-1.2,12.9-3.7c2.2-1.4,5.3-1.4,7.5,0,3.9,2.5,8.4,3.7,12.9,3.7s9-1.2,12.9-3.7c2.2-1.4,5.3-1.4,7.5,0,3.9,2.5,8.4,3.7,12.9,3.7"/>
  <path class="st0" d="M1.5,82.5c4.5,0,9-1.2,12.9-3.7,2.2-1.4,5.3-1.4,7.5,0,3.9,2.5,8.4,3.7,12.9,3.7s9-1.2,12.9-3.7c2.2-1.4,5.3-1.4,7.5,0,3.9,2.5,8.4,3.7,12.9,3.7s9-1.2,12.9-3.7c2.2-1.4,5.3-1.4,7.5,0,3.9,2.5,8.4,3.7,12.9,3.7"/>
</svg>