<?xml version="1.0" encoding="UTF-8"?>
<svg id="Calque_1" xmlns="http://www.w3.org/2000/svg" version="1.1" viewBox="0 0 103 103">
  <!-- Generator: Adobe Illustrator 29.8.7, SVG Export Plug-In . SVG Version: 2.1.1 Build 1)  -->
  <defs>
    <style>
      .st0, .st1 {
        fill: none;
        stroke: #fff;
        stroke-linecap: round;
        stroke-width: 3px;
      }

      .st1 {
        stroke-linejoin: round;
      }
    </style>
  </defs>
  <path class="st1" d="M5.8,51.7c3.9-8.4,12.5-23.1,20.8-32.5,3-3.4,8.1-3.4,11.1,0,8.2,9.4,16.9,24.1,20.8,32.5"/>
  <path class="st1" d="M39.5,21.3c4.9-6.6,10-12.8,15-17.4,3-2.8,7.5-2.8,10.5,0,.6.6,1.3,1.2,1.9,1.9"/>
  <path class="st1" d="M94.3,51.7c4,0,7.2,3.2,6.7,7.1-3.5,24.2-24.4,42.7-49.7,42.7S5,82.9,1.6,58.8c-.6-3.9,2.7-7.1,6.7-7.1h86.1Z"/>
  <path class="st1" d="M31,51.7c2.4,4.1,3.2,8.5,1.1,13-2.1,4.7-6,6.4-9.9,8.1-4.2,1.9-8.5,3.8-10.6,9.4"/>
  <path class="st1" d="M52.3,51.7c-.4,11.6,7.4,13.6,14.1,15.4,4,1,7.6,2,8.8,4.8.9,2.8-1.1,5.2-3.5,8-3.7,4.3-8,9.4-2.8,18.1"/>
  <path class="st1" d="M85.6,2.2c-4.9,5.3-10.5,15.6-12.8,21.1,0,0,1.2.5,5.7.8-2.4,4.4-4.5,8.9-5.7,12.1,0,0,2.6,1.2,14.3,1.2s14.3-1.2,14.3-1.2c-1.2-3.1-3.3-7.7-5.7-12.1,4.5-.3,5.7-.8,5.7-.8-2.4-5.6-7.9-15.8-12.8-21.1-.8-.9-2.2-.9-3,0Z"/>
  <path class="st0" d="M87.2,37.4v14.2"/>
</svg>