<svg width="70" height="70" viewBox="0 0 70 70" fill="none" xmlns="http://www.w3.org/2000/svg">
<path d="M62.6278 19.858C64.8038 23.2028 63.7077 27.3098 60.8911 30.1365L30.1295 61.0068C29.1595 61.9802 27.8803 62.578 26.5086 62.6576C23.9932 62.8034 19.1936 63.0177 11.8679 63.0879C11.562 63.0909 11.2603 62.9985 11.0149 62.8158C10.385 62.3467 9.67131 61.7552 8.95762 61.0415C8.24369 60.3276 7.65207 59.6136 7.1828 58.9835C7.00007 58.7382 6.90783 58.4366 6.91077 58.1306C6.98104 50.8051 7.19527 46.0055 7.34117 43.4903C7.42077 42.1184 8.01852 40.8393 8.9919 39.8694L39.8624 9.10786C42.6891 6.2912 46.7959 5.1951 50.1409 7.37112C52.082 8.63399 54.4167 10.442 56.9868 13.0121C59.5569 15.5821 61.3649 17.9167 62.6278 19.858Z" stroke="black" stroke-width="3" stroke-linecap="round" stroke-linejoin="round"/>
<path d="M52.1625 8.78972L54.8551 6.48182C56.4408 5.12251 58.543 4.32065 60.3877 5.30028C61.1568 5.70869 62.0056 6.29745 62.8543 7.14617C63.7029 7.99487 64.2918 8.84359 64.7001 9.61269C65.6798 11.4574 64.8779 13.5595 63.5186 15.1454L61.2106 17.8382" stroke="black" stroke-width="3" stroke-linecap="round" stroke-linejoin="round"/>
<path d="M56.665 34.3483C56.665 34.3483 54.619 29.8279 47.3959 22.6049C40.1727 15.3819 35.6523 13.3358 35.6523 13.3358" stroke="black" stroke-width="3" stroke-linecap="round" stroke-linejoin="round"/>
<path d="M28.3484 62.2215C26.089 59.1561 22.817 55.0869 18.7336 51.0179C14.7766 47.0746 10.8196 43.8903 7.77911 41.6479" stroke="black" stroke-width="3" stroke-linecap="round" stroke-linejoin="round"/>
<path d="M39.375 9.47953C37.3339 8.25491 34.836 7.71587 33.0323 7.4786C31.4983 7.27682 30.0105 7.9066 28.9164 9.00057L16.0417 21.8754" stroke="black" stroke-width="3" stroke-linecap="round" stroke-linejoin="round"/>
<path d="M8.75 61.25L4.375 65.625" stroke="black" stroke-width="3" stroke-linecap="round" stroke-linejoin="round"/>
</svg>
