<svg width="103" height="103" viewBox="0 0 103 103" fill="none" xmlns="http://www.w3.org/2000/svg">
<path d="M51.5 101.5C72.7849 101.5 88.1581 87.0322 88.6181 65.2456C88.677 62.4668 88.7093 59.477 88.7093 56.2622C88.7093 53.0475 88.677 50.0577 88.6181 47.2789C88.1581 25.4922 72.7849 11.0241 51.5 11.0241C30.2151 11.0241 14.8419 25.4924 14.3818 47.2789C14.3231 50.0577 14.2907 53.0475 14.2907 56.2622C14.2907 59.477 14.3231 62.4668 14.3818 65.2456C14.8419 87.0322 30.2151 101.5 51.5 101.5Z" stroke="black" stroke-width="3"/>
<path d="M32.8953 1.50034L37.5465 11.0241" stroke="black" stroke-width="3" stroke-linecap="round" stroke-linejoin="round"/>
<path d="M70.1047 1.50034L65.4535 11.0241" stroke="black" stroke-width="3" stroke-linecap="round" stroke-linejoin="round"/>
<path d="M51.5 44.3575V101.5" stroke="black" stroke-width="3" stroke-linecap="round" stroke-linejoin="round"/>
<path d="M87.5365 37.2147C77.3179 41.0611 65.07 43.1671 51.4998 43.1671C37.9296 43.1671 25.6819 41.0611 15.4632 37.2147" stroke="black" stroke-width="3"/>
<path d="M88.7093 44.3575L100.337 39.5956" stroke="black" stroke-width="3" stroke-linecap="round" stroke-linejoin="round"/>
<path d="M88.7093 72.9289L100.337 77.6908" stroke="black" stroke-width="3" stroke-linecap="round" stroke-linejoin="round"/>
<path d="M88.7093 58.6432H101.5" stroke="black" stroke-width="3" stroke-linecap="round" stroke-linejoin="round"/>
<path d="M14.2907 44.3575L2.66279 39.5956" stroke="black" stroke-width="3" stroke-linecap="round" stroke-linejoin="round"/>
<path d="M14.2907 72.9289L2.66279 77.6908" stroke="black" stroke-width="3" stroke-linecap="round" stroke-linejoin="round"/>
<path d="M14.2907 58.6432H1.5" stroke="black" stroke-width="3" stroke-linecap="round" stroke-linejoin="round"/>
</svg>
